<svg width="320" height="745" viewBox="0 0 320 745" fill="none" xmlns="http://www.w3.org/2000/svg">
<path d="M-128.867 691.203C-129.641 690.497 -130.173 689.566 -130.389 688.541C-130.591 687.597 -130.516 686.614 -130.173 685.711C-129.83 684.807 -129.234 684.023 -128.456 683.45L-48.0596 624.337C-47.3737 623.831 -46.5701 623.508 -45.7249 623.399C-44.8797 623.29 -44.0206 623.398 -43.2288 623.714C-42.4399 624.03 -41.744 624.541 -41.2063 625.199C-40.6685 625.857 -40.3064 626.641 -40.1539 627.477L-25.6911 707.213C-25.5447 708.025 -25.6007 708.861 -25.8543 709.647C-26.1079 710.432 -26.5512 711.143 -27.145 711.717C-27.7389 712.29 -28.4649 712.709 -29.259 712.935C-30.053 713.161 -30.8905 713.188 -31.6973 713.013L-126.563 692.399C-127.423 692.209 -128.217 691.796 -128.867 691.203ZM-48.5868 637.192L-113.543 684.949L-36.9063 701.597L-48.5868 637.192Z" fill="#FDBFBC"/>
<path d="M54.8688 602.731C52.4981 600.566 50.6172 597.92 49.3522 594.969C48.0872 592.019 47.4673 588.832 47.5339 585.623C47.5825 583.467 47.1692 581.325 46.3215 579.342C45.4739 577.359 44.2117 575.58 42.6196 574.125C41.0255 572.672 39.1389 571.577 37.0866 570.912C35.0343 570.248 32.8637 570.031 30.7203 570.274C27.5307 570.633 24.3013 570.306 21.2485 569.314C18.1956 568.323 15.3899 566.691 13.0194 564.527C10.6486 562.363 8.7678 559.717 7.50279 556.766C6.23779 553.816 5.61783 550.629 5.68444 547.419C5.7331 545.263 5.31973 543.122 4.47212 541.139C3.6245 539.156 2.36226 537.377 0.770208 535.922C-0.823966 534.469 -2.71049 533.373 -4.76281 532.709C-6.81512 532.045 -8.98575 531.827 -11.1291 532.071C-12.1038 532.18 -13.0822 531.898 -13.849 531.287C-14.6158 530.675 -15.1082 529.784 -15.2179 528.809C-15.3275 527.834 -15.0454 526.856 -14.4337 526.089C-13.822 525.322 -12.9308 524.83 -11.9561 524.72C-8.76572 524.362 -5.53555 524.689 -2.4819 525.68C0.571745 526.671 3.3784 528.303 5.75011 530.467C8.12105 532.631 10.0017 535.277 11.2659 538.228C12.5301 541.178 13.1486 544.365 13.0798 547.575C13.0326 549.731 13.4469 551.873 14.2949 553.856C15.1429 555.84 16.4051 557.619 17.9968 559.075C19.5907 560.527 21.4769 561.622 23.5287 562.286C25.5805 562.95 27.7506 563.167 29.8933 562.923C33.0837 562.564 36.3141 562.891 39.3679 563.882C42.4216 564.873 45.2282 566.506 47.5995 568.67C49.9705 570.834 51.8511 573.48 53.1153 576.431C54.3795 579.382 54.998 582.569 54.9292 585.778C54.8843 587.933 55.3005 590.073 56.1499 592.055C56.9994 594.036 58.2625 595.813 59.8546 597.266C61.4466 598.72 63.331 599.816 65.3813 600.482C67.4316 601.148 69.6005 601.367 71.7428 601.127C74.9329 600.767 78.163 601.094 81.2166 602.085C84.2701 603.076 87.0765 604.708 89.4475 606.872C91.8184 609.037 93.6992 611.683 94.9636 614.634C96.228 617.585 96.8469 620.772 96.7787 623.981C96.7738 624.471 96.6719 624.954 96.479 625.403C96.286 625.853 96.0059 626.26 95.6547 626.6C95.3035 626.941 94.8882 627.208 94.433 627.387C93.9777 627.566 93.4915 627.653 93.0024 627.642C92.5134 627.632 92.0312 627.525 91.5839 627.327C91.1365 627.129 90.7329 626.845 90.3963 626.49C90.0597 626.135 89.7968 625.717 89.623 625.259C89.4491 624.802 89.3676 624.315 89.3833 623.826C89.4294 621.671 89.0141 619.53 88.165 617.548C87.316 615.566 86.0529 613.789 84.4605 612.335C82.8682 610.882 80.9833 609.785 78.9325 609.12C76.8817 608.455 74.7122 608.236 72.5698 608.477C69.3802 608.836 66.1507 608.509 63.0979 607.518C60.0451 606.527 57.2393 604.894 54.8688 602.731Z" fill="#FFBE4D"/>
<path d="M41.2162 617.687C38.8455 615.522 36.9647 612.876 35.6997 609.926C34.4347 606.975 33.8147 603.788 33.8813 600.579C33.9293 598.423 33.5156 596.281 32.668 594.298C31.8204 592.315 30.5586 590.537 28.9671 589.081C27.3727 587.629 25.4861 586.533 23.4339 585.869C21.3816 585.205 19.2111 584.987 17.0678 585.23C13.8782 585.589 10.6488 585.262 7.59594 584.271C4.54311 583.279 1.73739 581.647 -0.633168 579.483C-3.00389 577.319 -4.88474 574.673 -6.14974 571.722C-7.41475 568.772 -8.03471 565.585 -7.9681 562.375C-7.92016 560.219 -8.33385 558.078 -9.18142 556.095C-10.029 554.112 -11.2908 552.333 -12.8823 550.878C-14.4768 549.425 -16.3633 548.33 -18.4156 547.666C-20.4678 547.002 -22.6383 546.784 -24.7816 547.027C-25.7564 547.136 -26.7347 546.854 -27.5015 546.243C-28.2683 545.631 -28.7607 544.74 -28.8704 543.765C-28.98 542.79 -28.698 541.812 -28.0863 541.045C-27.4746 540.278 -26.5833 539.786 -25.6086 539.676C-22.4184 539.318 -19.1886 539.646 -16.1353 540.637C-13.0821 541.629 -10.276 543.261 -7.90492 545.426C-5.53445 547.59 -3.65391 550.235 -2.38935 553.185C-1.12478 556.136 -0.505403 559.322 -0.572719 562.531C-0.619951 564.687 -0.20568 566.829 0.642334 568.812C1.49035 570.796 2.75251 572.575 4.34424 574.031C5.93818 575.483 7.82433 576.578 9.87617 577.242C11.928 577.906 14.0981 578.123 16.2408 577.88C19.431 577.521 22.6608 577.849 25.7141 578.841C28.7673 579.832 31.5734 581.465 33.9445 583.629C36.315 585.793 38.1955 588.439 39.4601 591.389C40.7246 594.339 41.344 597.525 41.2767 600.734C41.2318 602.889 41.6479 605.029 42.4974 607.011C43.3468 608.992 44.6099 610.769 46.202 612.222C47.7941 613.676 49.6784 614.772 51.7288 615.438C53.7791 616.104 55.948 616.324 58.0902 616.083C61.2801 615.724 64.5098 616.052 67.5628 617.043C70.6158 618.035 73.4216 619.667 75.7923 621.831C78.1631 623.995 80.0438 626.641 81.3087 629.592C82.5735 632.542 83.1931 635.728 83.1261 638.938C83.1212 639.427 83.0194 639.91 82.8265 640.359C82.6335 640.809 82.3533 641.216 82.0021 641.556C81.6509 641.897 81.2357 642.164 80.7804 642.343C80.3252 642.522 79.8389 642.609 79.3499 642.599C78.8608 642.588 78.3787 642.481 77.9313 642.283C77.484 642.085 77.0803 641.801 76.7438 641.446C76.4072 641.091 76.1443 640.673 75.9704 640.215C75.7966 639.758 75.7151 639.271 75.7307 638.782C75.7757 636.627 75.3595 634.487 74.5101 632.506C73.6606 630.524 72.3975 628.748 70.8054 627.294C69.2133 625.841 67.329 624.744 65.2787 624.079C63.2284 623.413 61.0595 623.193 58.9172 623.433C55.7276 623.792 52.4982 623.465 49.4454 622.474C46.3925 621.483 43.5868 619.851 41.2162 617.687Z" fill="#FFBE4D"/>
<path d="M27.5703 632.634C25.1987 630.472 23.3167 627.827 22.0503 624.878C20.784 621.929 20.1626 618.743 20.2279 615.535C20.2758 613.379 19.8621 611.237 19.0145 609.254C18.167 607.271 16.9051 605.492 15.3136 604.037C13.7192 602.584 11.8326 601.489 9.78039 600.825C7.72814 600.161 5.55763 599.943 3.41432 600.186C0.225294 600.543 -3.00332 600.215 -6.05496 599.222C-9.1066 598.23 -11.9107 596.596 -14.2792 594.431C-16.6505 592.267 -18.5317 589.621 -19.7967 586.67C-21.0618 583.72 -21.6814 580.533 -21.6141 577.323C-21.5662 575.167 -21.9798 573.026 -22.8274 571.043C-23.675 569.06 -24.9368 567.281 -26.5283 565.826C-28.1228 564.373 -30.0093 563.278 -32.0616 562.613C-34.1138 561.949 -36.2843 561.731 -38.4276 561.974C-39.4024 562.084 -40.3807 561.802 -41.1475 561.19C-41.9143 560.579 -42.4067 559.687 -42.5164 558.713C-42.626 557.738 -42.344 556.759 -41.7323 555.993C-41.1206 555.226 -40.2293 554.733 -39.2546 554.624C-36.0644 554.266 -32.8346 554.593 -29.7813 555.585C-26.7281 556.577 -23.922 558.209 -21.5509 560.373C-19.1804 562.537 -17.2999 565.183 -16.0353 568.133C-14.7708 571.083 -14.1514 574.269 -14.2187 577.478C-14.2659 579.635 -13.8517 581.777 -13.0037 583.76C-12.1556 585.743 -10.8935 587.523 -9.30175 588.978C-7.70781 590.431 -5.82166 591.526 -3.76982 592.19C-1.71799 592.854 0.452086 593.071 2.59481 592.827C5.78499 592.469 9.01486 592.797 12.0681 593.788C15.1213 594.78 17.9274 596.412 20.2985 598.577C22.669 600.741 24.5495 603.386 25.8141 606.336C27.0786 609.287 27.698 612.473 27.6307 615.682C27.5858 617.837 28.0019 619.977 28.8514 621.958C29.7008 623.94 30.9639 625.716 32.556 627.17C34.1481 628.623 36.0325 629.72 38.0828 630.385C40.1331 631.051 42.302 631.271 44.4442 631.03C47.6341 630.672 50.8638 630.999 53.9168 631.991C56.9698 632.982 59.7757 634.615 62.1464 636.779C64.5171 638.943 66.3978 641.589 67.6627 644.539C68.9275 647.489 69.5472 650.676 69.4801 653.885C69.449 654.859 69.0351 655.78 68.3284 656.451C67.6218 657.121 66.6793 657.485 65.7056 657.465C64.7319 657.444 63.8056 657.041 63.1277 656.341C62.4498 655.642 62.075 654.704 62.0848 653.73C62.1297 651.575 61.7135 649.435 60.8641 647.453C60.0146 645.472 58.7515 643.695 57.1594 642.242C55.5673 640.788 53.683 639.692 51.6327 639.026C49.5824 638.36 47.4135 638.14 45.2712 638.381C42.0816 638.741 38.8519 638.414 35.7989 637.423C32.7459 636.432 29.9403 634.799 27.5703 632.634Z" fill="#FFBE4D"/>
<path d="M150.926 384.708C150.152 384.002 149.62 383.071 149.404 382.046C149.202 381.101 149.277 380.119 149.62 379.216C149.963 378.312 150.559 377.527 151.337 376.955L231.733 317.842C232.419 317.34 233.221 317.021 234.063 316.915C234.906 316.808 235.762 316.917 236.551 317.232C237.34 317.548 238.036 318.059 238.574 318.718C239.112 319.376 239.474 320.16 239.626 320.996L254.101 400.718C254.245 401.527 254.187 402.36 253.933 403.142C253.679 403.924 253.237 404.632 252.646 405.203C252.052 405.778 251.326 406.197 250.532 406.423C249.737 406.649 248.899 406.676 248.092 406.5L153.226 385.886C152.369 385.7 151.576 385.294 150.926 384.708ZM231.206 330.697L166.25 378.454L242.886 395.102L231.206 330.697Z" fill="#FDBFBC"/>
<path d="M-128.867 691.203C-129.641 690.497 -130.173 689.566 -130.389 688.541C-130.591 687.597 -130.516 686.614 -130.173 685.711C-129.83 684.807 -129.234 684.023 -128.456 683.45L-48.0596 624.337C-47.3737 623.831 -46.5701 623.508 -45.7249 623.399C-44.8797 623.29 -44.0206 623.398 -43.2288 623.714C-42.4399 624.03 -41.744 624.541 -41.2063 625.199C-40.6685 625.857 -40.3064 626.641 -40.1539 627.477L-25.6911 707.213C-25.5447 708.025 -25.6007 708.861 -25.8543 709.647C-26.1079 710.432 -26.5512 711.143 -27.145 711.717C-27.7389 712.29 -28.4649 712.709 -29.259 712.935C-30.053 713.161 -30.8905 713.188 -31.6973 713.013L-126.563 692.399C-127.423 692.209 -128.217 691.796 -128.867 691.203ZM-48.5868 637.192L-113.543 684.949L-36.9063 701.597L-48.5868 637.192Z" fill="#FDBFBC"/>
<path d="M167.501 463.972L189.996 462.948C190.43 462.93 190.856 462.826 191.249 462.641C191.643 462.457 191.996 462.197 192.288 461.875C192.581 461.555 192.808 461.18 192.955 460.772C193.102 460.364 193.167 459.931 193.145 459.498C193.105 458.622 192.719 457.798 192.072 457.207C191.424 456.616 190.568 456.306 189.693 456.346L167.223 457.369L166.2 434.9C166.16 434.024 165.774 433.2 165.126 432.609C164.479 432.018 163.623 431.708 162.747 431.748C162.314 431.766 161.888 431.87 161.495 432.053C161.102 432.237 160.75 432.497 160.458 432.818C160.164 433.138 159.937 433.513 159.789 433.922C159.641 434.33 159.576 434.764 159.598 435.198L160.609 457.681L138.139 458.704C137.705 458.722 137.279 458.827 136.886 459.011C136.493 459.195 136.14 459.456 135.848 459.777C135.554 460.098 135.327 460.473 135.18 460.881C135.032 461.29 134.967 461.723 134.987 462.157C135.007 462.591 135.112 463.016 135.297 463.409C135.481 463.802 135.742 464.154 136.063 464.446C136.383 464.739 136.758 464.966 137.166 465.114C137.574 465.263 138.007 465.329 138.44 465.309L160.909 464.286L161.933 486.755C161.952 487.188 162.057 487.614 162.242 488.007C162.427 488.4 162.687 488.752 163.008 489.044C163.328 489.337 163.703 489.565 164.111 489.713C164.519 489.861 164.952 489.927 165.386 489.907C165.82 489.888 166.246 489.784 166.639 489.6C167.032 489.415 167.385 489.155 167.677 488.834C167.971 488.514 168.199 488.139 168.346 487.73C168.494 487.322 168.559 486.888 168.538 486.454L167.501 463.972Z" fill="#FFBE4D"/>
<path d="M120.691 290.029L116.359 225.271L127.137 224.552L131.466 289.308L120.691 290.029ZM119.645 228.145L123.565 286.743L128.175 286.444L124.262 227.838L119.645 228.145Z" fill="#BDEBE6"/>
<path d="M9.0966 315.428C29.2622 314.509 44.865 297.417 43.9466 277.252C43.0281 257.086 25.9361 241.483 5.77057 242.402C-14.395 243.32 -29.9979 260.412 -29.0794 280.578C-28.161 300.743 -11.069 316.346 9.0966 315.428Z" fill="#E89C38"/>
<path d="M43.574 285.763C43.9897 286.993 44.8768 288.008 46.0405 288.585C47.2042 289.162 48.5493 289.253 49.7803 288.839C51.0102 288.423 52.0248 287.535 52.6015 286.372C53.1782 285.208 53.27 283.864 52.8567 282.633C52.5779 281.808 52.0834 281.073 51.4245 280.504C50.5127 280.087 49.5967 279.692 48.666 279.318C47.9824 279.254 47.2929 279.334 46.6425 279.554C45.4129 279.971 44.3991 280.86 43.8238 282.024C43.2485 283.188 43.1587 284.532 43.574 285.763Z" fill="#FFBE4D"/>
<path d="M31.9195 294.865C33.1494 294.449 34.1639 293.562 34.7406 292.398C35.3173 291.235 35.4091 289.89 34.9958 288.659C34.5788 287.429 33.6909 286.415 32.527 285.838C31.363 285.262 30.018 285.171 28.7871 285.585C27.5565 286.002 26.5415 286.889 25.9651 288.054C25.3888 289.218 25.2983 290.563 25.7134 291.794C26.1293 293.024 27.0168 294.039 28.1806 294.615C29.3443 295.191 30.6892 295.281 31.9195 294.865Z" fill="#FFBE4D"/>
<path d="M14.0557 300.889C15.2863 300.473 16.3013 299.585 16.8777 298.421C17.454 297.257 17.5445 295.911 17.1294 294.68C16.9239 294.071 16.6005 293.507 16.1774 293.023C15.7543 292.538 15.2399 292.142 14.6635 291.856C14.0872 291.571 13.4602 291.401 12.8184 291.358C12.1766 291.315 11.5326 291.398 10.9231 291.604C9.69257 292.019 8.67739 292.907 8.10056 294.07C7.52373 295.234 7.43243 296.579 7.84671 297.81C8.26268 299.041 9.15016 300.057 10.3143 300.634C11.4784 301.211 12.824 301.303 14.0557 300.889Z" fill="#FFBE4D"/>
<path d="M-3.81106 306.91C-3.20144 306.704 -2.63833 306.381 -2.1539 305.957C-1.66946 305.534 -1.27319 305.019 -0.987752 304.443C-0.702312 303.866 -0.533292 303.239 -0.49034 302.597C-0.447389 301.955 -0.531348 301.311 -0.73743 300.701C-1.1531 299.471 -2.04024 298.456 -3.20394 297.879C-4.36764 297.302 -5.71273 297.211 -6.94371 297.625C-8.17362 298.041 -9.18815 298.929 -9.76485 300.092C-10.3415 301.256 -10.4333 302.6 -10.0201 303.831C-9.6041 305.062 -8.71662 306.078 -7.5525 306.655C-6.38837 307.232 -5.04274 307.324 -3.81106 306.91Z" fill="#FFBE4D"/>
<path d="M35.4808 275.916C35.6301 275.868 35.7761 275.81 35.9181 275.744C34.2528 275.472 32.5739 275.265 30.8813 275.122C31.5213 275.627 32.2772 275.964 33.0804 276.103C33.8836 276.241 34.7088 276.177 35.4808 275.916Z" fill="#FFBE4D"/>
<path d="M11.4025 278.86C11.819 280.09 12.7062 281.105 13.8696 281.682C15.0331 282.258 16.3777 282.35 17.6087 281.937C18.8387 281.52 19.8531 280.632 20.4293 279.468C21.0055 278.304 21.0965 276.959 20.6824 275.728C20.6177 275.541 20.542 275.359 20.4558 275.181C17.3247 275.466 14.2204 275.992 11.1705 276.756C11.0883 277.465 11.164 278.184 11.392 278.861L11.4025 278.86Z" fill="#FFBE4D"/>
<path d="M-6.46412 284.882C-6.04761 286.112 -5.16035 287.126 -3.99692 287.703C-2.83349 288.279 -1.48884 288.371 -0.257841 287.958C0.972069 287.541 1.98661 286.654 2.5633 285.491C3.14 284.327 3.23179 282.983 2.81853 281.752C2.58971 281.074 2.21472 280.455 1.72008 279.938C-1.16982 281.179 -3.96018 282.64 -6.62639 284.308C-6.58722 284.502 -6.53651 284.694 -6.47455 284.882L-6.46412 284.882Z" fill="#FFBE4D"/>
<path d="M82.2781 341.523C82.588 342.44 83.1622 343.245 83.9284 343.836C84.6947 344.428 85.6188 344.78 86.5845 344.848C87.0545 341.608 87.2618 338.335 87.2044 335.062C86.5791 335.025 85.9525 335.109 85.3595 335.311C84.7491 335.516 84.1852 335.84 83.6999 336.263C83.2147 336.686 82.8176 337.201 82.5315 337.778C82.2453 338.355 82.0756 338.983 82.0322 339.625C81.9887 340.268 82.0723 340.912 82.2781 341.523Z" fill="#FFBE4D"/>
<path d="M67.4828 341.343C66.2529 341.759 65.2384 342.647 64.6617 343.81C64.085 344.973 63.9932 346.318 64.4065 347.549C64.823 348.779 65.7102 349.794 66.8736 350.37C68.0371 350.947 69.3817 351.039 70.6127 350.625C71.8426 350.209 72.8572 349.322 73.4339 348.158C74.0106 346.995 74.1023 345.65 73.6891 344.419C73.2734 343.189 72.3863 342.173 71.2226 341.597C70.0589 341.02 68.7138 340.929 67.4828 341.343Z" fill="#FFBE4D"/>
<path d="M49.6155 347.364C48.3856 347.78 47.3711 348.668 46.7944 349.831C46.2177 350.994 46.1259 352.339 46.5392 353.57C46.9557 354.8 47.8429 355.815 49.0064 356.391C50.1698 356.968 51.5144 357.06 52.7454 356.646C53.9754 356.23 54.9899 355.343 55.5666 354.179C56.1433 353.016 56.2351 351.671 55.8218 350.44C55.4053 349.21 54.5181 348.196 53.3546 347.619C52.1912 347.042 50.8465 346.951 49.6155 347.364Z" fill="#FFBE4D"/>
<path d="M31.7493 353.385C30.5193 353.802 29.505 354.69 28.9288 355.854C28.3526 357.018 28.2615 358.363 28.6757 359.594C29.0914 360.824 29.9785 361.84 31.1422 362.416C32.3059 362.993 33.651 363.084 34.882 362.67C36.1119 362.254 37.1264 361.366 37.7031 360.203C38.2798 359.04 38.3716 357.695 37.9583 356.464C37.5424 355.233 36.6549 354.217 35.4908 353.64C34.3266 353.063 32.981 352.971 31.7493 353.385Z" fill="#FFBE4D"/>
<path d="M13.8828 359.411C13.2732 359.617 12.7101 359.94 12.2255 360.363C11.741 360.787 11.3446 361.301 11.0589 361.877C10.7732 362.454 10.6039 363.081 10.5606 363.722C10.5172 364.364 10.6008 365.008 10.8064 365.618C11.2229 366.848 12.1102 367.862 13.2736 368.439C14.437 369.016 15.7817 369.107 17.0127 368.694C18.2427 368.277 19.2571 367.389 19.8333 366.225C20.4095 365.061 20.5005 363.716 20.0863 362.485C19.6701 361.256 18.7832 360.242 17.6202 359.666C16.4572 359.089 15.1131 358.998 13.8828 359.411Z" fill="#FFBE4D"/>
<path d="M-3.98867 365.438C-5.21858 365.855 -6.23312 366.742 -6.80982 367.905C-7.38651 369.069 -7.47829 370.413 -7.06503 371.644C-6.648 372.874 -5.76012 373.889 -4.59616 374.465C-3.43221 375.041 -2.08723 375.132 -0.856266 374.718C0.373644 374.301 1.38819 373.414 1.96489 372.251C2.54158 371.087 2.63336 369.743 2.22009 368.512C1.80306 367.282 0.915192 366.267 -0.248761 365.691C-1.41271 365.115 -2.7577 365.024 -3.98867 365.438Z" fill="#FFBE4D"/>
<path d="M71.0413 322.396C69.8108 322.811 68.7956 323.699 68.2188 324.862C67.642 326.026 67.5507 327.371 67.965 328.602C68.3815 329.832 69.2687 330.846 70.4321 331.423C71.5956 332 72.9402 332.092 74.1712 331.678C75.4011 331.262 76.4157 330.375 76.9924 329.211C77.5691 328.048 77.6609 326.703 77.2476 325.472C76.8311 324.242 75.9438 323.228 74.7804 322.651C73.617 322.074 72.2723 321.982 71.0413 322.396Z" fill="#FFBE4D"/>
<path d="M56.3081 337.707C57.538 337.291 58.5526 336.404 59.1293 335.24C59.706 334.077 59.7978 332.732 59.3845 331.501C58.9675 330.271 58.0796 329.257 56.9156 328.681C55.7517 328.104 54.4067 328.013 53.1757 328.427C51.9452 328.844 50.9301 329.731 50.3538 330.896C49.7775 332.06 49.6869 333.405 50.1021 334.636C50.518 335.866 51.4054 336.881 52.5692 337.457C53.733 338.033 55.0779 338.123 56.3081 337.707Z" fill="#FFBE4D"/>
<path d="M38.4434 343.731C39.674 343.315 40.689 342.427 41.2654 341.263C41.8417 340.098 41.9322 338.753 41.5171 337.522C41.3117 336.912 40.9882 336.349 40.5651 335.865C40.142 335.38 39.6276 334.984 39.0512 334.698C38.4749 334.412 37.8479 334.243 37.2061 334.2C36.5643 334.156 35.9203 334.24 35.3108 334.446C34.0803 334.861 33.0651 335.748 32.4883 336.912C31.9114 338.076 31.8201 339.421 32.2344 340.652C32.6504 341.883 33.5379 342.899 34.702 343.476C35.8661 344.053 37.2117 344.145 38.4434 343.731Z" fill="#FFBE4D"/>
<path d="M20.5774 349.752C21.808 349.336 22.823 348.448 23.3993 347.284C23.9756 346.12 24.0662 344.774 23.651 343.543C23.2353 342.313 22.3482 341.298 21.1845 340.721C20.0208 340.144 18.6757 340.053 17.4447 340.467C16.2148 340.883 15.2003 341.771 14.6236 342.934C14.0469 344.098 13.9551 345.442 14.3684 346.673C14.7843 347.904 15.6718 348.92 16.8359 349.497C18.0001 350.074 19.3457 350.166 20.5774 349.752Z" fill="#FFBE4D"/>
<path d="M-0.422741 346.483C-1.65265 346.899 -2.6672 347.787 -3.24389 348.95C-3.82059 350.113 -3.91237 351.458 -3.49911 352.689C-3.0829 353.92 -2.19516 354.935 -1.03093 355.511C0.133286 356.087 1.47872 356.178 2.70966 355.763C3.94016 355.347 4.95534 354.46 5.53217 353.296C6.109 352.133 6.20031 350.787 5.78602 349.556C5.36899 348.326 4.4811 347.312 3.31715 346.736C2.1532 346.16 0.808226 346.069 -0.422741 346.483Z" fill="#FFBE4D"/>
<path d="M60.3567 379.24C59.1261 379.656 58.1111 380.544 57.5348 381.708C56.9584 382.872 56.8679 384.218 57.2831 385.449C57.5921 386.374 58.1728 387.185 58.9495 387.776C61.6058 386.083 64.1271 384.187 66.4905 382.105C66.033 380.93 65.1402 379.977 63.9978 379.443C62.8554 378.909 61.5514 378.837 60.3567 379.24Z" fill="#FFBE4D"/>
<path d="M48.7074 388.342C48.2904 387.112 47.4025 386.098 46.2385 385.522C45.0746 384.945 43.7296 384.854 42.4986 385.268C41.2681 385.684 40.253 386.571 39.6761 387.735C39.0993 388.899 39.008 390.244 39.4223 391.475C39.7277 392.381 40.2914 393.178 41.0439 393.768C41.7964 394.358 42.7049 394.715 43.6578 394.795C44.2802 394.607 44.9003 394.427 45.5193 394.221C46.1382 394.015 46.7426 393.775 47.3501 393.549C48.0599 392.908 48.5666 392.074 48.8078 391.148C49.049 390.223 49.0141 389.248 48.7074 388.342Z" fill="#FFBE4D"/>
<path d="M24.6263 391.285C23.4317 391.688 22.4389 392.536 21.8547 393.654C21.2706 394.771 21.1401 396.07 21.4906 397.282C24.6325 397.509 27.7874 397.493 30.9266 397.231C31.1861 396.29 31.1581 395.293 30.846 394.368C30.6405 393.757 30.3166 393.192 29.8927 392.706C29.4688 392.221 28.9533 391.823 28.3756 391.537C27.7979 391.25 27.1694 391.081 26.526 391.037C25.8827 390.994 25.2371 391.078 24.6263 391.285Z" fill="#FFBE4D"/>
<path d="M78.7088 360.48C79.09 361.619 79.8787 362.576 80.9231 363.168C82.3453 360.26 83.5368 357.245 84.4867 354.151C83.5931 353.935 82.6564 353.975 81.785 354.269C81.1751 354.475 80.6117 354.799 80.1271 355.222C79.6424 355.646 79.2459 356.161 78.9603 356.737C78.6746 357.314 78.5054 357.942 78.4623 358.584C78.4191 359.226 78.5029 359.871 78.7088 360.48Z" fill="#FFBE4D"/>
<path d="M63.9209 360.292C62.691 360.709 61.6765 361.596 61.0998 362.76C60.5231 363.923 60.4313 365.268 60.8446 366.499C61.2616 367.729 62.1495 368.743 63.3134 369.319C64.4774 369.896 65.8224 369.987 67.0533 369.572C68.2839 369.156 69.2989 368.268 69.8753 367.104C70.4516 365.94 70.5421 364.595 70.127 363.364C69.7102 362.134 68.8227 361.12 67.6592 360.544C66.4956 359.969 65.1512 359.878 63.9209 360.292Z" fill="#FFBE4D"/>
<path d="M46.0545 366.314C44.8246 366.73 43.8101 367.618 43.2334 368.781C42.6567 369.944 42.5649 371.289 42.9782 372.52C43.3952 373.75 44.2831 374.764 45.4471 375.341C46.611 375.917 47.956 376.008 49.1869 375.594C50.4175 375.178 51.4326 374.291 52.0095 373.127C52.5863 371.963 52.6776 370.618 52.2633 369.387C51.8463 368.157 50.9584 367.143 49.7944 366.567C48.6305 365.991 47.2855 365.9 46.0545 366.314Z" fill="#FFBE4D"/>
<path d="M28.1876 372.335C26.9577 372.751 25.9431 373.638 25.3664 374.802C24.7897 375.965 24.6979 377.31 25.1112 378.541C25.5269 379.772 26.414 380.787 27.5777 381.364C28.7414 381.94 30.0865 382.032 31.3175 381.617C32.5474 381.201 33.5619 380.314 34.1386 379.15C34.7153 377.987 34.8071 376.642 34.3938 375.411C33.9773 374.181 33.0901 373.167 31.9266 372.59C30.7632 372.013 29.4186 371.921 28.1876 372.335Z" fill="#FFBE4D"/>
<path d="M10.3211 378.356C9.09113 378.773 8.07677 379.661 7.50055 380.825C6.92434 381.989 6.83334 383.334 7.24749 384.565C7.66316 385.795 8.5503 386.81 9.714 387.387C10.8777 387.964 12.2228 388.055 13.4538 387.641C14.6843 387.225 15.6995 386.338 16.2763 385.175C16.8531 384.011 16.9444 382.666 16.5301 381.435C16.1142 380.204 15.2267 379.188 14.0625 378.611C12.8984 378.034 11.5528 377.942 10.3211 378.356Z" fill="#FFBE4D"/>
<path d="M-7.54311 384.38C-8.41448 384.674 -9.18511 385.208 -9.76638 385.921C-7.13787 387.809 -4.36426 389.487 -1.47143 390.939C-0.998604 389.835 -0.949709 388.596 -1.33411 387.459C-1.74925 386.227 -2.63661 385.211 -3.801 384.633C-4.9654 384.056 -6.31146 383.965 -7.54311 384.38Z" fill="#FFBE4D"/>
<path d="M71.5167 309.663C71.9338 310.893 72.8216 311.908 73.9856 312.484C75.1495 313.06 76.4945 313.151 77.7255 312.737C78.513 312.473 79.2202 312.013 79.78 311.4C80.3399 310.786 80.734 310.04 80.9249 309.232C79.9574 307.243 78.8799 305.31 77.6975 303.441C76.6881 303.106 75.5968 303.111 74.5904 303.454C73.3604 303.871 72.346 304.759 71.7698 305.923C71.1936 307.087 71.1026 308.432 71.5167 309.663Z" fill="#FFBE4D"/>
<path d="M59.8723 318.76C61.1029 318.344 62.1179 317.456 62.6942 316.292C63.2706 315.128 63.3611 313.782 62.9459 312.551C62.5294 311.321 61.6422 310.307 60.4787 309.73C59.3153 309.153 57.9707 309.062 56.7397 309.475C55.5097 309.892 54.4953 310.78 53.9191 311.944C53.3429 313.108 53.2519 314.453 53.666 315.684C54.0817 316.914 54.9688 317.929 56.1325 318.506C57.2962 319.083 58.6413 319.174 59.8723 318.76Z" fill="#FFBE4D"/>
<path d="M42.0007 324.787C43.2307 324.37 44.2451 323.482 44.8213 322.318C45.3975 321.154 45.4885 319.809 45.0743 318.578C44.6587 317.347 43.7715 316.332 42.6078 315.755C41.4441 315.179 40.099 315.087 38.8681 315.501C37.6382 315.918 36.6236 316.805 36.0469 317.969C35.4702 319.132 35.3784 320.477 35.7917 321.708C36.2077 322.939 37.0951 323.954 38.2593 324.532C39.4234 325.109 40.769 325.201 42.0007 324.787Z" fill="#FFBE4D"/>
<path d="M24.8344 330.508C27.2373 329.258 28.1717 326.296 26.9215 323.893C25.6712 321.491 22.7098 320.556 20.3069 321.806C17.904 323.057 16.9696 326.018 18.2198 328.421C19.47 330.824 22.4315 331.758 24.8344 330.508Z" fill="#FFBE4D"/>
<path d="M6.26995 336.826C7.49986 336.41 8.51441 335.523 9.09111 334.359C9.6678 333.196 9.75958 331.851 9.34632 330.62C8.92982 329.39 8.04257 328.376 6.87914 327.799C5.71571 327.222 4.37106 327.13 3.14005 327.544C1.90946 327.96 0.894459 328.848 0.318115 330.012C-0.258229 331.176 -0.348758 332.521 0.0664205 333.752C0.482628 334.982 1.36954 335.996 2.53255 336.572C3.69555 337.148 5.03965 337.24 6.26995 336.826Z" fill="#FFBE4D"/>
<path d="M63.4316 299.813C64.6616 299.396 65.676 298.508 66.2522 297.344C66.8284 296.18 66.9194 294.835 66.5052 293.604C66.0896 292.374 65.2024 291.359 64.0387 290.782C62.875 290.205 61.53 290.114 60.299 290.528C59.0691 290.944 58.0545 291.832 57.4778 292.995C56.9011 294.159 56.8093 295.503 57.2226 296.734C57.6386 297.965 58.5261 298.981 59.6902 299.558C60.8543 300.135 62.1999 300.227 63.4316 299.813Z" fill="#FFBE4D"/>
<path d="M45.5645 305.834C46.7944 305.418 47.8089 304.53 48.3856 303.367C48.9623 302.203 49.0541 300.859 48.6408 299.628C48.2235 298.398 47.3361 297.385 46.173 296.808C45.0098 296.231 43.6656 296.139 42.4346 296.551C41.204 296.967 40.1889 297.854 39.612 299.018C39.0352 300.182 38.9439 301.527 39.3582 302.758C39.7747 303.988 40.6619 305.002 41.8254 305.579C42.9888 306.156 44.3334 306.247 45.5645 305.834Z" fill="#FFBE4D"/>
<path d="M27.6979 311.855C28.9278 311.439 29.9424 310.552 30.5191 309.388C31.0958 308.225 31.1876 306.88 30.7743 305.649C30.3573 304.419 29.4694 303.405 28.3054 302.829C27.1415 302.252 25.7965 302.161 24.5655 302.575C23.335 302.991 22.3199 303.878 21.743 305.042C21.1662 306.206 21.0749 307.551 21.4892 308.782C21.9062 310.012 22.7941 311.026 23.958 311.602C25.122 312.178 26.467 312.27 27.6979 311.855Z" fill="#FFBE4D"/>
<path d="M9.8365 317.881C11.0664 317.465 12.081 316.578 12.6577 315.414C13.2344 314.251 13.3261 312.906 12.9129 311.675C12.4958 310.445 11.6079 309.431 10.444 308.855C9.28004 308.278 7.93507 308.187 6.7041 308.601C5.47579 309.018 4.46278 309.905 3.88706 311.067C3.31135 312.23 3.21989 313.573 3.63272 314.802C3.83787 315.412 4.16107 315.975 4.58387 316.46C5.00667 316.944 5.52078 317.341 6.09686 317.627C6.67295 317.913 7.29972 318.082 7.94137 318.126C8.58301 318.17 9.22698 318.087 9.8365 317.881Z" fill="#FFBE4D"/>
<path d="M-28.0359 457.876C-28.5344 457.422 -28.9316 456.868 -29.202 456.25C-29.4723 455.633 -29.6097 454.965 -29.6052 454.29C-29.5864 449.656 -28.6485 445.071 -26.8458 440.802C-25.0431 436.532 -22.4115 432.662 -19.1032 429.417C-15.8129 426.153 -11.9079 423.574 -7.61427 421.829C-3.32065 420.085 1.27634 419.209 5.91066 419.253C15.2641 419.326 24.2064 423.107 30.7755 429.766C37.3447 436.425 41.0042 445.417 40.9511 454.771C40.9456 455.403 40.8157 456.027 40.5689 456.608C40.3221 457.189 39.9631 457.716 39.5126 458.159C39.0621 458.602 38.5288 458.951 37.9432 459.188C37.3575 459.424 36.7311 459.543 36.0996 459.537C35.468 459.532 34.8438 459.402 34.2625 459.155C33.6812 458.908 33.1542 458.549 32.7116 458.099C32.269 457.648 31.9195 457.115 31.6831 456.529C31.4466 455.943 31.3279 455.317 31.3336 454.685C31.3616 451.318 30.723 447.978 29.4544 444.859C28.1858 441.739 26.3124 438.902 23.9421 436.509C21.5808 434.103 18.7656 432.188 15.6594 430.877C12.5532 429.565 9.21767 428.883 5.84599 428.869C2.47474 428.837 -0.869406 429.474 -3.9929 430.743C-7.11639 432.012 -9.9572 433.888 -12.3509 436.262C-14.7558 438.624 -16.6689 441.439 -17.9798 444.544C-19.2907 447.65 -19.9735 450.984 -19.9886 454.355C-19.9941 454.987 -20.124 455.611 -20.3708 456.192C-20.6176 456.774 -20.9766 457.301 -21.4271 457.743C-21.8776 458.186 -22.4109 458.535 -22.9965 458.772C-23.5822 459.008 -24.2086 459.127 -24.8401 459.121C-26.0227 459.116 -27.1614 458.672 -28.0359 457.876Z" fill="#BDEBE6"/>
<path d="M12.5599 113.822C13.0756 113.389 13.6772 113.068 14.3252 112.883C14.9733 112.698 15.6532 112.652 16.3203 112.748C20.9118 113.383 25.3318 114.922 29.3241 117.278C33.3165 119.633 36.802 122.756 39.5787 126.468C42.3751 130.164 44.4104 134.378 45.5667 138.866C46.723 143.354 46.9772 148.027 46.3147 152.614C44.9965 161.875 40.058 170.233 32.5833 175.856C25.1085 181.479 15.7082 183.907 6.44554 182.606C5.18361 182.427 4.04441 181.755 3.27831 180.736C2.51222 179.717 2.1819 178.436 2.35996 177.174C2.4483 176.549 2.65897 175.947 2.97992 175.403C3.30088 174.859 3.72584 174.384 4.23054 174.004C4.73523 173.624 5.30975 173.348 5.92132 173.19C6.53289 173.033 7.16951 172.997 7.79483 173.086C11.1299 173.565 14.5268 173.378 17.7892 172.536C21.0516 171.694 24.1147 170.213 26.8014 168.18C29.5022 166.16 31.7757 163.624 33.4904 160.719C35.205 157.814 36.3269 154.598 36.7911 151.257C37.2676 147.921 37.0788 144.524 36.2355 141.262C35.3922 137.999 33.9111 134.936 31.8777 132.249C29.857 129.548 27.321 127.274 24.4163 125.56C21.5116 123.845 18.2958 122.723 14.9548 122.259C14.3295 122.171 13.7277 121.96 13.1837 121.64C12.6397 121.319 12.1642 120.895 11.7843 120.39C11.4045 119.886 11.1277 119.311 10.9698 118.7C10.8119 118.089 10.7759 117.452 10.864 116.827C11.0382 115.65 11.6424 114.58 12.5599 113.822Z" fill="#937AB9"/>
<path d="M54.8688 602.731C52.4981 600.566 50.6172 597.92 49.3522 594.969C48.0872 592.019 47.4673 588.832 47.5339 585.623C47.5825 583.467 47.1692 581.325 46.3215 579.342C45.4739 577.359 44.2117 575.58 42.6196 574.125C41.0255 572.672 39.1389 571.577 37.0866 570.912C35.0343 570.248 32.8637 570.031 30.7203 570.274C27.5307 570.633 24.3013 570.306 21.2485 569.314C18.1956 568.323 15.3899 566.691 13.0194 564.527C10.6486 562.363 8.7678 559.717 7.50279 556.766C6.23779 553.816 5.61783 550.629 5.68444 547.419C5.7331 545.263 5.31973 543.122 4.47212 541.139C3.6245 539.156 2.36226 537.377 0.770208 535.922C-0.823966 534.469 -2.71049 533.373 -4.76281 532.709C-6.81512 532.045 -8.98575 531.827 -11.1291 532.071C-12.1038 532.18 -13.0822 531.898 -13.849 531.287C-14.6158 530.675 -15.1082 529.784 -15.2179 528.809C-15.3275 527.834 -15.0454 526.856 -14.4337 526.089C-13.822 525.322 -12.9308 524.83 -11.9561 524.72C-8.76572 524.362 -5.53555 524.689 -2.4819 525.68C0.571745 526.671 3.3784 528.303 5.75011 530.467C8.12105 532.631 10.0017 535.277 11.2659 538.228C12.5301 541.178 13.1486 544.365 13.0798 547.575C13.0326 549.731 13.4469 551.873 14.2949 553.856C15.1429 555.84 16.4051 557.619 17.9968 559.075C19.5907 560.527 21.4769 561.622 23.5287 562.286C25.5805 562.95 27.7506 563.167 29.8933 562.923C33.0837 562.564 36.3141 562.891 39.3679 563.882C42.4216 564.873 45.2282 566.506 47.5995 568.67C49.9705 570.834 51.8511 573.48 53.1153 576.431C54.3795 579.382 54.998 582.569 54.9292 585.778C54.8843 587.933 55.3005 590.073 56.1499 592.055C56.9994 594.036 58.2625 595.813 59.8546 597.266C61.4466 598.72 63.331 599.816 65.3813 600.482C67.4316 601.148 69.6005 601.367 71.7428 601.127C74.9329 600.767 78.163 601.094 81.2166 602.085C84.2701 603.076 87.0765 604.708 89.4475 606.872C91.8184 609.037 93.6992 611.683 94.9636 614.634C96.228 617.585 96.8469 620.772 96.7787 623.981C96.7738 624.471 96.6719 624.954 96.479 625.403C96.286 625.853 96.0059 626.26 95.6547 626.6C95.3035 626.941 94.8882 627.208 94.433 627.387C93.9777 627.566 93.4915 627.653 93.0024 627.642C92.5134 627.632 92.0312 627.525 91.5839 627.327C91.1365 627.129 90.7329 626.845 90.3963 626.49C90.0597 626.135 89.7968 625.717 89.623 625.259C89.4491 624.802 89.3676 624.315 89.3833 623.826C89.4294 621.671 89.0141 619.53 88.165 617.548C87.316 615.566 86.0529 613.789 84.4605 612.335C82.8682 610.882 80.9833 609.785 78.9325 609.12C76.8817 608.455 74.7122 608.236 72.5698 608.477C69.3802 608.836 66.1507 608.509 63.0979 607.518C60.0451 606.527 57.2393 604.894 54.8688 602.731Z" fill="#FFBE4D"/>
<path d="M41.2162 617.687C38.8455 615.522 36.9647 612.876 35.6997 609.926C34.4347 606.975 33.8147 603.788 33.8813 600.579C33.9293 598.423 33.5156 596.281 32.668 594.298C31.8204 592.315 30.5586 590.537 28.9671 589.081C27.3727 587.629 25.4861 586.533 23.4339 585.869C21.3816 585.205 19.2111 584.987 17.0678 585.23C13.8782 585.589 10.6488 585.262 7.59594 584.271C4.54311 583.279 1.73739 581.647 -0.633168 579.483C-3.00389 577.319 -4.88474 574.673 -6.14974 571.722C-7.41475 568.772 -8.03471 565.585 -7.9681 562.375C-7.92016 560.219 -8.33385 558.078 -9.18142 556.095C-10.029 554.112 -11.2908 552.333 -12.8823 550.878C-14.4768 549.425 -16.3633 548.33 -18.4156 547.666C-20.4678 547.002 -22.6383 546.784 -24.7816 547.027C-25.7564 547.136 -26.7347 546.854 -27.5015 546.243C-28.2683 545.631 -28.7607 544.74 -28.8704 543.765C-28.98 542.79 -28.698 541.812 -28.0863 541.045C-27.4746 540.278 -26.5833 539.786 -25.6086 539.676C-22.4184 539.318 -19.1886 539.646 -16.1353 540.637C-13.0821 541.629 -10.276 543.261 -7.90492 545.426C-5.53445 547.59 -3.65391 550.235 -2.38935 553.185C-1.12478 556.136 -0.505403 559.322 -0.572719 562.531C-0.619951 564.687 -0.20568 566.829 0.642334 568.812C1.49035 570.796 2.75251 572.575 4.34424 574.031C5.93818 575.483 7.82433 576.578 9.87617 577.242C11.928 577.906 14.0981 578.123 16.2408 577.88C19.431 577.521 22.6608 577.849 25.7141 578.841C28.7673 579.832 31.5734 581.465 33.9445 583.629C36.315 585.793 38.1955 588.439 39.4601 591.389C40.7246 594.339 41.344 597.525 41.2767 600.734C41.2318 602.889 41.6479 605.029 42.4974 607.011C43.3468 608.992 44.6099 610.769 46.202 612.222C47.7941 613.676 49.6784 614.772 51.7288 615.438C53.7791 616.104 55.948 616.324 58.0902 616.083C61.2801 615.724 64.5098 616.052 67.5628 617.043C70.6158 618.035 73.4216 619.667 75.7923 621.831C78.1631 623.995 80.0438 626.641 81.3087 629.592C82.5735 632.542 83.1931 635.728 83.1261 638.938C83.1212 639.427 83.0194 639.91 82.8265 640.359C82.6335 640.809 82.3533 641.216 82.0021 641.556C81.6509 641.897 81.2357 642.164 80.7804 642.343C80.3252 642.522 79.8389 642.609 79.3499 642.599C78.8608 642.588 78.3787 642.481 77.9313 642.283C77.484 642.085 77.0803 641.801 76.7438 641.446C76.4072 641.091 76.1443 640.673 75.9704 640.215C75.7966 639.758 75.7151 639.271 75.7307 638.782C75.7757 636.627 75.3595 634.487 74.5101 632.506C73.6606 630.524 72.3975 628.748 70.8054 627.294C69.2133 625.841 67.329 624.744 65.2787 624.079C63.2284 623.413 61.0595 623.193 58.9172 623.433C55.7276 623.792 52.4982 623.465 49.4454 622.474C46.3925 621.483 43.5868 619.851 41.2162 617.687Z" fill="#FFBE4D"/>
<path d="M27.5703 632.634C25.1987 630.472 23.3167 627.827 22.0503 624.878C20.784 621.929 20.1626 618.743 20.2279 615.535C20.2758 613.379 19.8621 611.237 19.0145 609.254C18.167 607.271 16.9051 605.492 15.3136 604.037C13.7192 602.584 11.8326 601.489 9.78039 600.825C7.72814 600.161 5.55763 599.943 3.41432 600.186C0.225294 600.543 -3.00332 600.215 -6.05496 599.222C-9.1066 598.23 -11.9107 596.596 -14.2792 594.431C-16.6505 592.267 -18.5317 589.621 -19.7967 586.67C-21.0618 583.72 -21.6814 580.533 -21.6141 577.323C-21.5662 575.167 -21.9798 573.026 -22.8274 571.043C-23.675 569.06 -24.9368 567.281 -26.5283 565.826C-28.1228 564.373 -30.0093 563.278 -32.0616 562.613C-34.1138 561.949 -36.2843 561.731 -38.4276 561.974C-39.4024 562.084 -40.3807 561.802 -41.1475 561.19C-41.9143 560.579 -42.4067 559.687 -42.5164 558.713C-42.626 557.738 -42.344 556.759 -41.7323 555.993C-41.1206 555.226 -40.2293 554.733 -39.2546 554.624C-36.0644 554.266 -32.8346 554.593 -29.7813 555.585C-26.7281 556.577 -23.922 558.209 -21.5509 560.373C-19.1804 562.537 -17.2999 565.183 -16.0353 568.133C-14.7708 571.083 -14.1514 574.269 -14.2187 577.478C-14.2659 579.635 -13.8517 581.777 -13.0037 583.76C-12.1556 585.743 -10.8935 587.523 -9.30175 588.978C-7.70781 590.431 -5.82166 591.526 -3.76982 592.19C-1.71799 592.854 0.452086 593.071 2.59481 592.827C5.78499 592.469 9.01486 592.797 12.0681 593.788C15.1213 594.78 17.9274 596.412 20.2985 598.577C22.669 600.741 24.5495 603.386 25.8141 606.336C27.0786 609.287 27.698 612.473 27.6307 615.682C27.5858 617.837 28.0019 619.977 28.8514 621.958C29.7008 623.94 30.9639 625.716 32.556 627.17C34.1481 628.623 36.0325 629.72 38.0828 630.385C40.1331 631.051 42.302 631.271 44.4442 631.03C47.6341 630.672 50.8638 630.999 53.9168 631.991C56.9698 632.982 59.7757 634.615 62.1464 636.779C64.5171 638.943 66.3978 641.589 67.6627 644.539C68.9275 647.489 69.5472 650.676 69.4801 653.885C69.449 654.859 69.0351 655.78 68.3284 656.451C67.6218 657.121 66.6793 657.485 65.7056 657.465C64.7319 657.444 63.8056 657.041 63.1277 656.341C62.4498 655.642 62.075 654.704 62.0848 653.73C62.1297 651.575 61.7135 649.435 60.8641 647.453C60.0146 645.472 58.7515 643.695 57.1594 642.242C55.5673 640.788 53.683 639.692 51.6327 639.026C49.5824 638.36 47.4135 638.14 45.2712 638.381C42.0816 638.741 38.8519 638.414 35.7989 637.423C32.7459 636.432 29.9403 634.799 27.5703 632.634Z" fill="#FFBE4D"/>
<path d="M89.9297 497.142L64.4656 506.535L73.8586 531.999L99.3227 522.606L89.9297 497.142Z" fill="#937AB9"/>
<path d="M150.926 384.708C150.152 384.002 149.62 383.071 149.404 382.046C149.202 381.101 149.277 380.119 149.62 379.216C149.963 378.312 150.559 377.527 151.337 376.955L231.733 317.842C232.419 317.34 233.221 317.021 234.063 316.915C234.906 316.808 235.762 316.917 236.551 317.232C237.34 317.548 238.036 318.059 238.574 318.718C239.112 319.376 239.474 320.16 239.626 320.996L254.101 400.718C254.245 401.527 254.187 402.36 253.933 403.142C253.679 403.924 253.237 404.632 252.646 405.203C252.052 405.778 251.326 406.197 250.532 406.423C249.737 406.649 248.899 406.676 248.092 406.5L153.226 385.886C152.369 385.7 151.576 385.294 150.926 384.708ZM231.206 330.697L166.25 378.454L242.886 395.102L231.206 330.697Z" fill="#FDBFBC"/>
<path d="M120.691 290.029L116.359 225.271L127.137 224.552L131.466 289.308L120.691 290.029ZM119.645 228.145L123.565 286.743L128.175 286.444L124.262 227.838L119.645 228.145Z" fill="#BDEBE6"/>
<path d="M12.5599 113.822C13.0756 113.389 13.6772 113.068 14.3252 112.883C14.9733 112.698 15.6532 112.652 16.3203 112.748C20.9118 113.383 25.3318 114.922 29.3241 117.278C33.3165 119.633 36.802 122.756 39.5787 126.468C42.3751 130.164 44.4104 134.378 45.5667 138.866C46.723 143.354 46.9772 148.027 46.3147 152.614C44.9965 161.875 40.058 170.233 32.5833 175.856C25.1085 181.479 15.7082 183.907 6.44554 182.606C5.18361 182.427 4.04441 181.755 3.27831 180.736C2.51222 179.717 2.1819 178.436 2.35996 177.174C2.4483 176.549 2.65897 175.947 2.97992 175.403C3.30088 174.859 3.72584 174.384 4.23054 174.004C4.73523 173.624 5.30975 173.348 5.92132 173.19C6.53289 173.033 7.16951 172.997 7.79483 173.086C11.1299 173.565 14.5268 173.378 17.7892 172.536C21.0516 171.694 24.1147 170.213 26.8014 168.18C29.5022 166.16 31.7757 163.624 33.4904 160.719C35.205 157.814 36.3269 154.598 36.7911 151.257C37.2676 147.921 37.0788 144.524 36.2355 141.262C35.3922 137.999 33.9111 134.936 31.8777 132.249C29.857 129.548 27.321 127.274 24.4163 125.56C21.5116 123.845 18.2958 122.723 14.9548 122.259C14.3295 122.171 13.7277 121.96 13.1837 121.64C12.6397 121.319 12.1642 120.895 11.7843 120.39C11.4045 119.886 11.1277 119.311 10.9698 118.7C10.8119 118.089 10.7759 117.452 10.864 116.827C11.0382 115.65 11.6424 114.58 12.5599 113.822Z" fill="#937AB9"/>
</svg>
